<?xml version="1.0" encoding="utf-8"?>
<!-- Uploaded to: SVG Repo, www.svgrepo.com, Generator: SVG Repo Mixer Tools -->
<svg width="800px" height="800px" viewBox="0 0 1024 1024" class="icon"  version="1.1" xmlns="http://www.w3.org/2000/svg"><path d="M398 862V748.4c0-10.2 4.5-18.4 10.1-18.4 45 12 78.7 18 101.2 18 24.2 0 60.4-6 108.7-18 5.6 0 10.1 8.2 10.1 18.4V862" fill="#E0E7EA" /><path d="M344.7 302.1c9.5 0 17.3 7.7 17.3 17.3v0.4l-4.6 226.9c-0.2 9.9-8.3 17.9-18.3 17.9-9.7 0-17.5-7.8-17.5-17.5v-0.4l5.1-226.9c0.2-9.9 8.2-17.7 18-17.7zM682.2 302.1c-9 0-16.3 7.3-16.3 16.3v227c0 10.6 8.6 19.2 19.2 19.2 10.4 0 18.8-8.4 18.8-18.8v-0.4l-5.1-227c-0.2-9.1-7.6-16.3-16.6-16.3z" fill="#FF684C" /><path d="M696.1 655.1c-1.8-1.2-2.3-3.7-1-5.6 1.2-1.8 3.7-2.3 5.6-1 20 13.7 32.4 36.3 32.7 61l1.8 153.5c0 2.2-1.7 4-4 4-2.2 0-4-1.7-4-4l-1.8-153.5c-0.4-21.9-11.4-42.1-29.3-54.4zM297.3 864c0 2.2-1.8 4-4 4s-4-1.8-4-4v-1.5L292 709c0.5-23.3 11.6-44.7 29.9-58.5 0.6-0.4 1.1-0.8 1.7-1.3 1.8-1.3 4.3-0.9 5.6 0.9s0.9 4.3-0.9 5.6c-0.5 0.4-1 0.7-1.5 1.1-16.4 12.3-26.3 31.4-26.7 52.3l-2.8 153.5v1.4z" fill="" /><path d="M693.8 658.4c-3.6-2.5-4.6-7.5-2.1-11.1s7.5-4.6 11.1-2.1c21.1 14.4 34.1 38.2 34.4 64.3L739 863c0.1 4.4-3.5 8-7.9 8.1-4.4 0.1-8-3.5-8.1-7.9l-1.8-153.5c-0.2-20.8-10.5-39.7-27.4-51.3zM301.3 864c0 4.4-3.6 8-8 8s-8-3.6-8-8v-1.5L288 709c0.5-24.6 12.2-47.1 31.5-61.6 0.6-0.4 1.2-0.9 1.8-1.3 3.6-2.6 8.6-1.7 11.2 1.9 2.6 3.6 1.7 8.6-1.9 11.2-0.5 0.3-1 0.7-1.4 1.1-15.4 11.6-24.8 29.5-25.2 49.2L301.2 863c0.1 0.2 0.1 0.6 0.1 1zM446.5 168c-39.8 0-72.3 31.6-73.5 71.3L362 615v2.2c0 40.6 32.9 73.5 73.5 73.5h158c40.6-1.2 72.5-35 71.3-75.6l-11-375.7c-1.3-39.8-33.8-71.4-73.5-71.4H446.5z m0-16h133.8c48.4 0 88 38.5 89.4 86.9l11 375.7c1.4 49.4-37.4 90.6-86.8 92.1H435.5c-49.4 0-89.5-40.1-89.5-89.5v-2.6l11-375.7c1.5-48.4 41.1-86.9 89.5-86.9z" fill="" /><path d="M447.8 186h127.8c30.4 0 55.2 24.2 56 54.5l9.9 374c0.8 30.9-23.6 56.6-54.5 57.5H438c-30.9 0-56-25.1-56-56v-1.5l9.9-374c0.7-30.3 25.6-54.5 55.9-54.5z" fill="#E0E7EA" /><path d="M464.4 374.1l-76.2-27.2c-8.5-3-6.3-15.5 2.7-15.5h246c9 0 11.1 12.6 2.6 15.6l-78.4 27.2c-0.8 0.3-1.7 0.4-2.6 0.4h-91.4c-0.9-0.1-1.8-0.2-2.7-0.5z" fill="" /><path d="M512 327c15.1 0 27.9 11.3 29.8 26.3l1.6 100.7 17 15.6c2.4 19-9.5 32-28.5 34.4-1.4 0.2-2.9 0.3-4.3 0.3h-26.4c-19.1 0-34.4-13.9-34.4-33 0-0.7 5.4-6.4 16.3-17.2V353.4C484.5 338.5 497 327 512 327z" fill="#C4CDD1" /><path d="M512 335c-10.8 0-19.8 8.1-20.9 18.8V454c0 2.1-0.9 4.2-2.4 5.7-5.4 5.3-9.4 9.4-12 12.2-0.7 0.7-1.3 1.4-1.8 1.9 1.3 13 12.1 22.5 26.3 22.5h26.4c1.1 0 2.2-0.1 3.3-0.2 14.2-1.8 22.2-10.2 21.8-22.6L538 459.9c-1.6-1.5-2.5-3.6-2.6-5.8l-1.6-100.2C532.2 343.1 523 335 512 335z m-36.9 18.4v-0.7c1.8-19.1 17.7-33.6 36.9-33.6s35.3 14.3 37.7 33.3c0 0.3 0.1 0.6 0.1 0.9l1.6 97.3 14.5 13.3c1.4 1.3 2.3 3 2.5 4.9 2.9 23.1-11.7 40.3-35.4 43.3-1.8 0.2-3.6 0.3-5.3 0.3h-26.4c-23.7 0-42.4-17.7-42.4-41 0-1.6 0.4-2.7 0.9-3.8 0.2-0.4 0.5-0.8 0.7-1.2 0.3-0.5 0.7-1 1.2-1.6 0.8-0.9 1.9-2.2 3.4-3.7 2.4-2.5 5.7-5.9 10-10.2v-97.5zM444.3 579.4c-4.4 0-8-3.6-8-8s3.6-8 8-8h138.1c4.4 0 8 3.6 8 8s-3.6 8-8 8H444.3zM357.3 765c0-4.4 3.6-8 8-8s8 3.6 8 8v99.4c0 4.4-3.6 8-8 8s-8-3.6-8-8V765zM650.7 765c0-4.4 3.6-8 8-8s8 3.6 8 8v99.4c0 4.4-3.6 8-8 8s-8-3.6-8-8V765z" fill="" /></svg>