<?xml version="1.0" encoding="utf-8"?>
<!-- Uploaded to: SVG Repo, www.svgrepo.com, Generator: SVG Repo Mixer Tools -->
<svg width="800px" height="800px" viewBox="0 0 1024 1024" class="icon"  version="1.1" xmlns="http://www.w3.org/2000/svg"><path d="M261.2 745.8h501.7V794H261.2z" fill="#E0E7EA" /><path d="M774.9 380.5c0-4.4 3.6-8 8-8s8 3.6 8 8V422c0 4.4-3.6 8-8 8H241.1c-4.4 0-8-3.6-8-8v-41.4c0-4.4 3.6-8 8-8s8 3.6 8 8V414h525.8v-33.5zM249.1 733.7v10.5c0 4.4-3.6 8-8 8s-8-3.6-8-8v-18.5c0-4.4 3.6-8 8-8h541.8c4.4 0 8 3.6 8 8v22.7c0 4.4-3.6 8-8 8s-8-3.6-8-8v-14.7H249.1zM722.2 777.8c-4.4 0-8-3.6-8-8s3.6-8 8-8H813c4.4 0 8 3.6 8 8v45.4c0 4.4-3.6 8-8 8H211c-4.4 0-8-3.6-8-8v-45.4c0-4.4 3.6-8 8-8h403.4c4.4 0 8 3.6 8 8s-3.6 8-8 8H219v29.4h586v-29.4h-82.8z m-66.6 0c-4.4 0-8-3.6-8-8s3.6-8 8-8h23.1c4.4 0 8 3.6 8 8s-3.6 8-8 8h-23.1z" fill="" /><path d="M349.3 304l162-88 296.3 160.9h-78L511.3 258.7 295.4 376.9H215l105.5-57.3" fill="#E0E7EA" /><path d="M511.3 225.1L353.1 311c-3.9 2.1-8.7 0.7-10.8-3.2-2.1-3.9-0.7-8.7 3.2-10.8l162-88c2.4-1.3 5.3-1.3 7.6 0l296.3 160.9c7.3 4 4.5 15-3.8 15H215c-8.3 0-11.1-11.1-3.8-15l105.5-57.3c3.9-2.1 8.7-0.7 10.8 3.2 2.1 3.9 0.7 8.7-3.2 10.8l-77.8 42.2h529.6L511.3 225.1z" fill="" /><path d="M511.4 265.7L297.1 382.1c-3.9 2.1-8.7 0.7-10.8-3.2-2.1-3.9-0.7-8.7 3.2-10.8L507.6 249.6c2.4-1.3 5.3-1.3 7.6 0l116.1 63.1c3.9 2.1 5.3 7 3.2 10.8-2.1 3.9-7 5.3-10.8 3.2l-112.3-61z m146.2 79.4c-3.9-2.1-5.3-7-3.2-10.8 2.1-3.9 7-5.3 10.8-3.2l65.4 35.5c3.9 2.1 5.3 7 3.2 10.8-2.1 3.9-7 5.3-10.8 3.2l-65.4-35.5z" fill="" /><path d="M512.2 321.7m-31.8 0a31.8 31.8 0 1 0 63.6 0 31.8 31.8 0 1 0-63.6 0Z" fill="#FFC200" /><path d="M369.6 717.1V475.8c0-4.4 3.6-8 8-8s8 3.6 8 8v249.3c0 4.4-3.6 8-8 8H287.3c-4.4 0-8-3.6-8-8V459.7c0-4.4 3.6-8 8-8s8 3.6 8 8v257.4h74.3z" fill="" /><path d="M389.6 428.7c0-4.4 3.6-8 8-8s8 3.6 8 8c0 16.6-13.5 30.1-30.1 30.1H287.3c-16.6 0-30.1-13.5-30.1-30.1 0-4.4 3.6-8 8-8s8 3.6 8 8c0 7.8 6.3 14.1 14.1 14.1h88.3c7.7 0 14-6.3 14-14.1zM570.2 428.7c0-4.4 3.6-8 8-8s8 3.6 8 8c0 16.6-13.5 30.1-30.1 30.1h-88.3c-16.6 0-30.1-13.5-30.1-30.1 0-4.4 3.6-8 8-8s8 3.6 8 8c0 7.8 6.3 14.1 14.1 14.1h88.3c7.8 0 14.1-6.3 14.1-14.1zM750.8 428.7c0-4.4 3.6-8 8-8s8 3.6 8 8c0 16.6-13.5 30.1-30.1 30.1h-88.3c-16.6 0-30.1-13.5-30.1-30.1 0-4.4 3.6-8 8-8s8 3.6 8 8c0 7.8 6.3 14.1 14.1 14.1h88.3c7.8 0 14.1-6.3 14.1-14.1z" fill="" /><path d="M357.5 484v222.5h-50.2V469.7h50.2M536.1 484v222.5h-50.2V469.7h50.2M716.7 484v222.5h-50.2V469.7h50.2" fill="#FF684C" /><path d="M728.8 523.1c0-4.4 3.6-8 8-8s8 3.6 8 8v202.5c0 4.4-3.6 8-8 8h-90.3c-4.4 0-8-3.6-8-8V456.8c0-4.4 3.6-8 8-8s8 3.6 8 8v260.8h74.3V523.1z m0-66.3c0-4.4 3.6-8 8-8s8 3.6 8 8v23.6c0 4.4-3.6 8-8 8s-8-3.6-8-8v-23.6zM548.2 624.8c0-4.4 3.6-8 8-8s8 3.6 8 8v100.8c0 4.4-3.6 8-8 8h-90.3c-4.4 0-8-3.6-8-8V481.1c0-4.4 3.6-8 8-8s8 3.6 8 8v236.5h74.3v-92.8z m0-169.7c0-4.4 3.6-8 8-8s8 3.6 8 8v129c0 4.4-3.6 8-8 8s-8-3.6-8-8v-129z" fill="" /></svg>